<svg height="72.988" viewBox="0 0 72.988 72.988" width="72.988" xmlns="http://www.w3.org/2000/svg"><rect fill="#fe6d43" height="72.988" rx="8" width="72.988"/><g fill="#fff"><path d="m170.8 28.622a5.186 5.186 0 0 0 -2.385.595v-3.429h-2.878v8.265a5.4 5.4 0 0 0 .618 2.514 5.27 5.27 0 0 0 4.707 2.854 5.4 5.4 0 0 0 -.065-10.8zm1.87 7.278a2.545 2.545 0 0 1 -3.677.018 2.748 2.748 0 0 1 -.577-.864 2.664 2.664 0 0 1 -.208-1.023 2.635 2.635 0 0 1 .208-1.031 2.839 2.839 0 0 1 .554-.854 2.535 2.535 0 0 1 1.831-.771 2.636 2.636 0 0 1 1.851.757 2.7 2.7 0 0 1 .78 1.889 2.668 2.668 0 0 1 -.763 1.879z" transform="translate(-140.931 3.708)"/><path d="m302.209 34.281v5.139h-2.672v-5.328h-.019v-.064a2.67 2.67 0 0 0 -.763-1.868 2.6 2.6 0 0 0 -4.44 1.908v.022h-.021v5.325h-2.878v-13.628h2.878v4.194a3.291 3.291 0 0 1 2.588-1.321c2.9-.251 5.326 1.657 5.326 5.37z" transform="translate(-248.535 3.709)"/><path d="m28.869 25.787v9.589a4.03 4.03 0 0 1 -2.409 3.724 3.893 3.893 0 0 1 -1.553.321h-.122a3.91 3.91 0 0 1 -.811-.085c-.047-.009-.094-.024-.138-.036-.082-.019-.16-.039-.242-.064s-.151-.057-.228-.085c-.046-.018-.09-.033-.136-.052a.065.065 0 0 1 -.019-.006 4.018 4.018 0 0 1 -2.386-3.555c0-.051 0-.1 0-.157h2.775a.909.909 0 0 0 .005.119 1.629 1.629 0 0 0 .046.246.087.087 0 0 1 .009.024 1.465 1.465 0 0 0 .078.188.128.128 0 0 0 .016.025 1.267 1.267 0 0 0 .087.145l.016.018c.028.037.054.073.075.1h.007a1.247 1.247 0 0 0 .851.347h.125a1.264 1.264 0 0 0 .853-.344 1.3 1.3 0 0 0 .336-.868v-9.594z" transform="translate(-17.224 3.709)"/><path d="m251.286 36.553h.479v2.8h-1.146a4.084 4.084 0 0 1 -1.638-.34 4.186 4.186 0 0 1 -2.481-3.613v-9.613h2.891v2.826h.962a4.686 4.686 0 0 0 1.51-.241s.4 2.089-1.156 2.755a1.553 1.553 0 0 1 -.808.122h-.509v4.163a1.372 1.372 0 0 0 .345.782c.139.126.43.359 1.551.359z" transform="translate(-210.112 3.709)"/><path d="m457.5 63.146h-2.734v-9.674h2.734z" transform="translate(-388.098 -20.018)"/><path d="m84.575 50.668a5.568 5.568 0 0 0 .223 1.593 5.434 5.434 0 0 0 2.095 2.939 5.17 5.17 0 0 0 2.926.936 5.44 5.44 0 1 0 -5.244-5.47zm2.675.024a2.717 2.717 0 0 1 .781-1.9 2.628 2.628 0 0 1 1.85-.762 2.523 2.523 0 0 1 1.83.776 2.758 2.758 0 0 1 .761 1.9 2.711 2.711 0 0 1 -.783 1.9 2.551 2.551 0 0 1 -1.851.781 2.578 2.578 0 0 1 -1.827-.8 2.712 2.712 0 0 1 -.761-1.895z" transform="translate(-71.646 -13.01)"/><path d="m384.543 50.706a5.275 5.275 0 1 0 -5.225 5.666 5.145 5.145 0 0 0 2.5-.668v.668h2.733v-5.454c0-.071 0-.141-.005-.21m-3.42 2.128a2.578 2.578 0 0 1 -1.823.8 2.547 2.547 0 0 1 -1.846-.776 2.7 2.7 0 0 1 -.781-1.895 2.731 2.731 0 0 1 .76-1.893 2.5 2.5 0 0 1 1.825-.781 2.62 2.62 0 0 1 1.844.759 2.709 2.709 0 0 1 .769 1.663 2.064 2.064 0 0 1 .011.232 2.831 2.831 0 0 1 -.068.616 2.7 2.7 0 0 1 -.692 1.28" transform="translate(-319.166 -13.258)"/><path d="m454.53 27.186a1.4 1.4 0 1 1 1.4 1.438 1.423 1.423 0 0 1 -1.4-1.438z" transform="translate(-387.9 3.737)"/></g></svg>