<?xml version="1.0" encoding="UTF-8"?>
<svg version="1.1" xmlns="http://www.w3.org/2000/svg" width="300" height="300">
<path d="M0 0 C0.06960465 13.40444603 0.12286454 26.80884883 0.15543652 40.21343899 C0.17107184 46.4381748 0.19227139 52.66278668 0.22631836 58.88745117 C0.2589875 64.89803849 0.27686906 70.90850683 0.28463173 76.9191761 C0.29016165 79.20882095 0.30096018 81.49845951 0.31719017 83.78805351 C0.3390645 87.00264275 0.3419627 90.21674443 0.34057617 93.43139648 C0.351362 94.37151581 0.36214783 95.31163513 0.3732605 96.28024292 C0.32685699 106.26583532 -2.45954061 113.94063097 -9.1875 121.4375 C-15.72423547 127.39319232 -22.63946833 132.18428411 -30.375 136.4375 C-32.23424837 137.47967658 -34.09226053 138.52406077 -35.94921875 139.5703125 C-36.92938965 140.12235352 -37.90956055 140.67439453 -38.91943359 141.24316406 C-44.38509163 144.36020918 -49.78313628 147.59073512 -55.1875 150.8125 C-64.31076088 156.2453508 -73.47487816 161.59451283 -82.6875 166.875 C-90.35450583 171.27367337 -97.94419421 175.75065009 -105.40942383 180.48339844 C-110.35014741 183.61250129 -115.34447399 186.6424016 -120.375 189.625 C-121.4743689 190.28302612 -121.4743689 190.28302612 -122.59594727 190.9543457 C-127.76341763 194 -127.76341763 194 -130 194 C-130.09284324 180.4824666 -130.16383794 166.96500956 -130.20724869 153.44722176 C-130.22808787 147.16977773 -130.25633894 140.8925525 -130.30175781 134.61523438 C-130.34534571 128.5527622 -130.36916469 122.49049998 -130.37950897 116.42788315 C-130.38687707 114.11951266 -130.40126511 111.81115314 -130.42292023 109.50287247 C-130.45212556 106.25964126 -130.45594876 103.01726816 -130.45410156 99.77392578 C-130.46848267 98.82805099 -130.48286377 97.88217621 -130.49768066 96.90763855 C-130.43311771 86.37270258 -126.41409392 77.45395464 -119 70 C-108.24924462 60.99494606 -95.16772251 54.64433596 -83.04199219 47.73925781 C-79.13346914 45.50456133 -75.24974848 43.23011965 -71.375 40.9375 C-66.79815666 38.23174981 -62.21387096 35.54023581 -57.61328125 32.875 C-45.15940795 25.65427574 -32.80345553 18.29232727 -20.52807617 10.77319336 C-2.90072445 0 -2.90072445 0 0 0 Z " fill="#92B91F" transform="translate(215,53)"/>
<path d="M0 0 C0.07616325 7.29566754 0.1286476 14.59123224 0.16479492 21.88720703 C0.17986662 24.3683658 0.20032746 26.84949799 0.22631836 29.33056641 C0.26277167 32.90013189 0.27974292 36.46934461 0.29296875 40.0390625 C0.30845261 41.14553131 0.32393646 42.25200012 0.33988953 43.39199829 C0.34111212 49.0067282 0.25149732 53.18555118 -3 58 C-10.6477171 65.29474554 -21.5877371 70.22436682 -30.63378906 75.57519531 C-33.59684001 77.35938489 -36.50501327 79.22329042 -39.40185547 81.11279297 C-41 82 -41 82 -43 82 C-44.5116609 68.00873858 -44.5116609 68.00873858 -41.265625 63.6953125 C-38.60298251 61.87671028 -35.87716056 60.45642867 -33 59 C-30.46732824 57.40328601 -27.98900353 55.72623625 -25.5 54.0625 C-19.33514203 50 -19.33514203 50 -17 50 C-16.67 42.41 -16.34 34.82 -16 27 C-19.85668768 29.22489633 -23.71037018 31.45473686 -27.5625 33.6875 C-28.64853516 34.31333984 -29.73457031 34.93917969 -30.85351562 35.58398438 C-31.91376953 36.19951172 -32.97402344 36.81503906 -34.06640625 37.44921875 C-35.5196228 38.28972778 -35.5196228 38.28972778 -37.00219727 39.1472168 C-37.99147217 39.75863525 -38.98074707 40.37005371 -40 41 C-40.63163055 41.29410263 -41.26326111 41.58820526 -41.91403198 41.89122009 C-44.1062304 43.07368818 -45.46245411 44.02867325 -47 46 C-47.88117698 50.21816554 -47.59580934 54.32106758 -47.375 58.60546875 C-47.32716883 61.14123445 -47.28166958 63.67704501 -47.23828125 66.21289062 C-47.13081731 70.200588 -47.00024596 74.18188454 -46.82568359 78.16723633 C-45.95199983 99.97281429 -45.95199983 99.97281429 -49.50341797 105.222229 C-52.99370706 108.60016728 -58.89840585 113 -64 113 C-64.11590114 103.30766896 -64.20471862 93.61557682 -64.25906086 83.92270374 C-64.28514391 79.42177143 -64.32051776 74.92131356 -64.37719727 70.4206543 C-64.43156406 66.07640108 -64.46143027 61.73260391 -64.47438622 57.38803673 C-64.48361781 55.73139962 -64.50164546 54.07478721 -64.52865028 52.4183445 C-64.56500498 50.09581399 -64.56994301 47.7751623 -64.56762695 45.45239258 C-64.58560333 44.76906357 -64.60357971 44.08573456 -64.62210083 43.38169861 C-64.58127802 39.59280395 -64.08799544 38.10598374 -61.63485718 35.15136719 C-58.95109028 32.9600651 -56.2777361 31.1275646 -53.30078125 29.35546875 C-52.18582275 28.68572021 -51.07086426 28.01597168 -49.92211914 27.32592773 C-48.71906654 26.61285897 -47.5158565 25.90005578 -46.3125 25.1875 C-43.79525417 23.68499592 -41.28048755 22.17836377 -38.765625 20.671875 C-37.80487816 20.09789223 -37.80487816 20.09789223 -36.82472229 19.51231384 C-32.36279553 16.83985569 -27.94540579 14.10349134 -23.546875 11.328125 C-22.36034237 10.58297424 -21.17373884 9.83793635 -19.98706055 9.09301758 C-17.73920762 7.68144769 -15.50063327 6.25786441 -13.26489258 4.8269043 C-11.74351685 3.87424683 -11.74351685 3.87424683 -10.19140625 2.90234375 C-9.30654541 2.34023193 -8.42168457 1.77812012 -7.51000977 1.19897461 C-4.73824393 -0.12503492 -3.02389652 -0.09670782 0 0 Z " fill="#444644" transform="translate(182,96)"/>
</svg>
