<?xml version="1.0" encoding="UTF-8"?>
<svg version="1.1" xmlns="http://www.w3.org/2000/svg" width="224" height="224">
<path d="M0 0 C3.125 0.375 3.125 0.375 6 1 C5.97905273 1.73001221 5.95810547 2.46002441 5.93652344 3.2121582 C5.85243073 6.57879383 5.80104721 9.94520745 5.75 13.3125 C5.71648437 14.46041016 5.68296875 15.60832031 5.6484375 16.79101562 C5.50698523 29.27417879 9.22066272 39.75312222 17.8125 48.9375 C27.53801557 58.03556295 38.90116817 61.53987485 52.05859375 61.3046875 C58.06804133 60.84013159 63.65643683 59.89143478 69 57 C70.56419719 54.96533733 71.38960207 53.17901893 72.26171875 50.77734375 C73 49 73 49 75.3125 47.4375 C78.90596651 46.85251708 81.47841768 47.03956846 85 48 C87.51666056 50.12948202 88.71851452 51.6855159 89.4140625 54.93359375 C89.68833701 58.75178367 89.19686896 60.67414793 87.1875 64 C83.14416183 66.5369965 80.69807554 66.15290793 76.046875 65.9140625 C71.62468835 66.03879084 67.92774714 67.46542776 63.82421875 69.02734375 C51.19918467 73.37538453 36.78006929 71.28756264 24.8125 65.875 C19.10824006 62.79562715 14.56697901 58.55112145 10 54 C9.4225 53.44570312 8.845 52.89140625 8.25 52.3203125 C-1.58999272 42.01907012 -4.40292083 28.09277492 -4.1953125 14.390625 C-3.57212714 3.57212714 -3.57212714 3.57212714 0 0 Z M79 54 C78.67 55.32 78.34 56.64 78 58 C78.99 58.495 78.99 58.495 80 59 C80.66 58.67 81.32 58.34 82 58 C82 57.01 82 56.02 82 55 C81.01 54.67 80.02 54.34 79 54 Z " fill="#61A7CC" transform="translate(63,62)"/>
<path d="M0 0 C3.55247432 0.87379409 4.94828114 2.4927342 6.9375 5.4765625 C7.63491298 8.31194644 7.65844512 10.6442781 6.9375 13.4765625 C4.25998966 16.97220099 2.25834588 18.70498288 -2.0625 19.4765625 C-4.6262685 24.60409949 -3.78329863 32.00092234 -2.2265625 37.34765625 C1.03838842 44.54588698 5.78141971 48.48887193 12.8125 51.8515625 C22.59058902 53.8071803 29.25913851 51.83195792 37.6875 46.8515625 C42.83044512 41.42289821 45.29621465 34.57678002 46.48046875 27.2890625 C46.9375 25.4765625 46.9375 25.4765625 48.9375 23.4765625 C51.87203261 23.84337908 52.80187246 24.34093496 54.9375 26.4765625 C55.77765451 34.17797882 53.76057727 41.32413746 49.39453125 47.74609375 C47.67699028 49.8016405 45.89231787 51.64617862 43.9375 53.4765625 C43.04224609 54.32734375 43.04224609 54.32734375 42.12890625 55.1953125 C35.1463128 61.11817763 26.76438299 62.87339412 17.75 62.4140625 C7.3696388 61.12835935 -0.26046639 56.39658619 -6.82421875 48.3046875 C-12.42780916 40.4352385 -13.81597182 33.03985868 -13.0625 23.4765625 C-12.61253383 20.91641015 -12.07272717 18.39588025 -11.48828125 15.86328125 C-11.06854604 13.51045363 -11.08517428 11.5384438 -11.25 9.1640625 C-11.0625 5.4765625 -11.0625 5.4765625 -9.0625 2.4765625 C-5.73362371 0.25731164 -3.92313492 -0.28234683 0 0 Z M-3.0625 7.4765625 C-3.3925 8.7965625 -3.7225 10.1165625 -4.0625 11.4765625 C-2.7425 11.4765625 -1.4225 11.4765625 -0.0625 11.4765625 C-0.0625 10.1565625 -0.0625 8.8365625 -0.0625 7.4765625 C-1.0525 7.4765625 -2.0425 7.4765625 -3.0625 7.4765625 Z " fill="#58AFD5" transform="translate(91.0625,51.5234375)"/>
<path d="M0 0 C1.53701355 0.9963052 3.05964264 2.01538278 4.5625 3.0625 C5.19414062 3.49820313 5.82578125 3.93390625 6.4765625 4.3828125 C8.98430215 6.272531 10.43962417 7.75892442 11.625 10.6875 C11.5625 13.0625 11.5625 13.0625 10.4375 14.9375 C8.5625 16.0625 8.5625 16.0625 6.3125 16.125 C3.61709987 15.0835954 2.50761329 14.22908814 0.4375 12.3125 C-9.44391112 3.29978436 -21.5394266 2.3587502 -34.25390625 2.88330078 C-45.74747614 3.82653427 -55.17925016 11.1524457 -62.515625 19.5234375 C-64.95290348 21.47524181 -66.3936062 21.36688938 -69.4375 21.0625 C-70.625 19.375 -70.625 19.375 -71.4375 17.0625 C-66.64747219 6.6841064 -56.84264205 0.1432562 -46.5 -3.875 C-30.86890521 -9.47788331 -14.47692973 -8.32477237 0 0 Z " fill="#7AB7D6" transform="translate(139.4375,33.9375)"/>
<path d="M0 0 C5.38768349 1.39863082 7.64991757 4.86036949 10.8125 9.125 C11.31458984 9.78371094 11.81667969 10.44242188 12.33398438 11.12109375 C13.5657645 12.74000478 14.78422728 14.36903345 16 16 C16.03738281 15.09636719 16.07476562 14.19273437 16.11328125 13.26171875 C16.17902344 12.08222656 16.24476562 10.90273437 16.3125 9.6875 C16.37050781 8.51574219 16.42851563 7.34398437 16.48828125 6.13671875 C17 3 17 3 18.37890625 1.0703125 C20 0 20 0 22.625 0.1875 C25 1 25 1 26 3 C26.24518456 7.64119958 26.18520521 12.29055844 26.1875 16.9375 C26.19974609 18.23880859 26.21199219 19.54011719 26.22460938 20.88085938 C26.22750977 22.74774414 26.22750977 22.74774414 26.23046875 24.65234375 C26.23457764 25.79695068 26.23868652 26.94155762 26.24291992 28.12084961 C26 31 26 31 24 34 C21.73046875 34.61328125 21.73046875 34.61328125 19 34 C16.77280641 31.97577153 15.07292663 29.61856534 13.3125 27.1875 C12.58450195 26.22360352 12.58450195 26.22360352 11.84179688 25.24023438 C9.81226098 22.53885212 7.87487582 19.81231373 6 17 C5.95101562 18.05960938 5.90203125 19.11921875 5.8515625 20.2109375 C5.77653291 21.59898497 5.70098515 22.98700451 5.625 24.375 C5.57859375 25.42300781 5.57859375 25.42300781 5.53125 26.4921875 C5.2265625 31.7734375 5.2265625 31.7734375 3 34 C0.5 33.8125 0.5 33.8125 -2 33 C-5.24052508 28.13921238 -4.36884672 22.77581837 -4.375 17.0625 C-4.39949219 15.86947266 -4.42398438 14.67644531 -4.44921875 13.44726562 C-4.45308594 12.30064453 -4.45695312 11.15402344 -4.4609375 9.97265625 C-4.46915527 8.92343994 -4.47737305 7.87422363 -4.48583984 6.79321289 C-3.88780413 3.35495832 -2.64718048 2.18456324 0 0 Z " fill="#30BDE5" transform="translate(87,153)"/>
<path d="M0 0 C1.01416992 0.00483398 1.01416992 0.00483398 2.04882812 0.00976562 C4.02302734 -0.01537109 4.02302734 -0.01537109 6.03710938 -0.04101562 C9.88311449 0.33668076 11.71700199 0.97390085 14.73632812 3.32226562 C16.87005299 6.52285292 17.2019309 8.50485395 17.13867188 12.31445312 C16.46943617 15.65413421 14.30286366 17.26903719 11.73632812 19.32226562 C13.26341775 22.75821729 15.33559858 25.44139017 17.73632812 28.32226562 C16.74632812 30.79726562 16.74632812 30.79726562 15.73632812 33.32226562 C13.50585938 33.60351562 13.50585938 33.60351562 10.73632812 33.32226562 C8.49804688 31.35351562 8.49804688 31.35351562 6.42382812 28.82226562 C5.72644531 27.98695313 5.0290625 27.15164062 4.31054688 26.29101562 C3.79105469 25.64132813 3.2715625 24.99164063 2.73632812 24.32226562 C2.60355469 24.88816406 2.47078125 25.4540625 2.33398438 26.03710938 C2.15738281 26.77058594 1.98078125 27.5040625 1.79882812 28.25976562 C1.62480469 28.99066406 1.45078125 29.7215625 1.27148438 30.47460938 C0.73632812 32.32226562 0.73632812 32.32226562 -0.26367188 33.32226562 C-2.70117188 33.50976562 -2.70117188 33.50976562 -5.26367188 33.32226562 C-8.05986319 30.52607431 -7.52189576 28.76341849 -7.52929688 24.85351562 C-7.531875 23.56058594 -7.53445312 22.26765625 -7.53710938 20.93554688 C-7.53291992 20.26088379 -7.52873047 19.5862207 -7.52441406 18.89111328 C-7.51371257 16.83010405 -7.5243113 14.76996643 -7.53710938 12.70898438 C-7.53453125 11.41605469 -7.53195313 10.123125 -7.52929688 8.79101562 C-7.52704102 7.59927734 -7.52478516 6.40753906 -7.52246094 5.1796875 C-7.05833148 0.05499776 -4.62013371 0.05056863 0 0 Z M1.73632812 7.32226562 C1.73632812 9.63226563 1.73632812 11.94226563 1.73632812 14.32226562 C3.71632812 13.99226562 5.69632813 13.66226563 7.73632812 13.32226562 C8.06632813 12.00226563 8.39632812 10.68226563 8.73632812 9.32226562 C6.08893896 7.86163712 4.84184478 7.32226562 1.73632812 7.32226562 Z " fill="#36659B" transform="translate(187.263671875,153.677734375)"/>
<path d="M0 0 C2.81256281 -0.02684312 5.62487241 -0.04676188 8.4375 -0.0625 C9.23994141 -0.07087891 10.04238281 -0.07925781 10.86914062 -0.08789062 C12.91295221 -0.0965143 14.95683902 -0.0522815 17 0 C18 1 18 1 18.25 3.4375 C18.1675 4.283125 18.085 5.12875 18 6 C14.91111478 8.05925681 14.29064073 8.2390374 10.8125 8.125 C8.9253125 8.063125 8.9253125 8.063125 7 8 C7 9.32 7 10.64 7 12 C8.27875 11.979375 9.5575 11.95875 10.875 11.9375 C14.75 11.875 14.75 11.875 17 13 C17.125 15.375 17.125 15.375 17 18 C15 20 15 20 13.0546875 20.1953125 C11.03645833 20.13020833 9.01822917 20.06510417 7 20 C7 21.65 7 23.3 7 25 C7.71027344 24.98839844 8.42054688 24.97679687 9.15234375 24.96484375 C10.07144531 24.95582031 10.99054688 24.94679687 11.9375 24.9375 C12.85402344 24.92589844 13.77054688 24.91429687 14.71484375 24.90234375 C17 25 17 25 18 26 C18.25 28.4375 18.25 28.4375 18 31 C14.35535532 33.42976312 12.34165569 33.36061651 8 33.4375 C6.14375 33.49744141 6.14375 33.49744141 4.25 33.55859375 C1 33 1 33 -0.68041992 30.81494141 C-2.12329462 27.73698668 -2.37383998 25.78085196 -2.36328125 22.40234375 C-2.36263672 21.35369141 -2.36199219 20.30503906 -2.36132812 19.22460938 C-2.34521484 18.13986328 -2.32910156 17.05511719 -2.3125 15.9375 C-2.31572266 14.84888672 -2.31894531 13.76027344 -2.32226562 12.63867188 C-2.26259906 3.82429347 -2.26259906 3.82429347 0 0 Z " fill="#326298" transform="translate(158,154)"/>
<path d="M0 0 C1.9375 1.8125 1.9375 1.8125 2.25 4.5 C2.146875 5.263125 2.04375 6.02625 1.9375 6.8125 C-0.07839329 8.24042441 -1.48827092 8.88192524 -3.96875 8.58203125 C-4.6596875 8.45183594 -5.350625 8.32164062 -6.0625 8.1875 C-9.08841513 7.73587088 -9.77430969 7.65399533 -12.5625 9.1875 C-14.69821786 12.92500625 -14.9239379 16.59843892 -14.0625 20.8125 C-13.00916303 22.69948458 -13.00916303 22.69948458 -11.0625 23.8125 C-8.12300161 24.1382299 -8.12300161 24.1382299 -4.9375 23.9375 C-2.97998948 23.86708595 -1.02126782 23.81834707 0.9375 23.8125 C1.9375 24.8125 1.9375 24.8125 2.1875 27.1875 C1.9375 29.8125 1.9375 29.8125 0.68359375 31.421875 C-2.49488224 33.9532787 -6.11192614 33.90854312 -10.0625 33.8125 C-14.65038457 32.97016112 -17.92631593 31.34415419 -21 27.8125 C-24.88860396 22.15634878 -24.65797432 16.47490832 -24.0625 9.8125 C-22.82767374 5.37656361 -20.32727538 2.65485546 -16.375 0.375 C-10.83029811 -2.02494559 -5.61954735 -2.17900815 0 0 Z " fill="#34BEE5" transform="translate(43.0625,154.1875)"/>
<path d="M0 0 C3.125 0.375 3.125 0.375 6 1 C5.97905273 1.73001221 5.95810547 2.46002441 5.93652344 3.2121582 C5.85243073 6.57879383 5.80104721 9.94520745 5.75 13.3125 C5.71648437 14.46041016 5.68296875 15.60832031 5.6484375 16.79101562 C5.5081871 29.16811366 9.18126793 39.3979149 17.49609375 48.66796875 C18.629338 49.81405429 19.80898413 50.91407377 21 52 C20.67 52.66 20.34 53.32 20 54 C19.01 53.01 18.02 52.02 17 51 C16.67 53.31 16.34 55.62 16 58 C7.27988053 54.22128156 2.73917743 45.46946597 -0.8125 37.12109375 C-5.10281123 25.8449139 -5.47822906 13.59409686 -2 2 C-1.34 1.34 -0.68 0.68 0 0 Z " fill="#33BCE4" transform="translate(63,62)"/>
<path d="M0 0 C2.93453261 0.36681658 3.86437246 0.86437246 6 3 C6.84015451 10.70141632 4.82307727 17.84757496 0.45703125 24.26953125 C-1.26050972 26.325078 -3.04518213 28.16961612 -5 30 C-5.89525391 30.85078125 -5.89525391 30.85078125 -6.80859375 31.71875 C-13.68798613 37.55407659 -22.13529398 39.23674289 -31 39 C-31 38.34 -31 37.68 -31 37 C-29.02 37 -27.04 37 -25 37 C-25 35.35 -25 33.7 -25 32 C-26.65 32 -28.3 32 -30 32 C-30 31.67 -30 31.34 -30 31 C-27.69 31 -25.38 31 -23 31 C-23 30.34 -23 29.68 -23 29 C-22.40832031 28.75765625 -21.81664063 28.5153125 -21.20703125 28.265625 C-13.11710064 24.83433306 -8.87838634 21.72491651 -5.0625 13.67578125 C-3.77295436 10.42821227 -3.01643176 7.2549647 -2.45703125 3.8125 C-2 2 -2 2 0 0 Z " fill="#5079A8" transform="translate(140,75)"/>
<path d="M0 0 C0.98033203 -0.01224609 1.96066406 -0.02449219 2.97070312 -0.03710938 C3.90720703 -0.03904297 4.84371094 -0.04097656 5.80859375 -0.04296875 C6.67154053 -0.04707764 7.5344873 -0.05118652 8.42358398 -0.05541992 C10.5625 0.1875 10.5625 0.1875 12.5625 2.1875 C12.19568342 5.12203261 11.69812754 6.05187246 9.5625 8.1875 C6.9375 8.3125 6.9375 8.3125 4.5625 8.1875 C4.57297363 8.87376465 4.58344727 9.5600293 4.59423828 10.26708984 C4.63571874 13.36552289 4.66180069 16.46389761 4.6875 19.5625 C4.70425781 20.64273438 4.72101563 21.72296875 4.73828125 22.8359375 C4.74472656 23.8671875 4.75117188 24.8984375 4.7578125 25.9609375 C4.76828613 26.91403809 4.77875977 27.86713867 4.78955078 28.84912109 C4.5625 31.1875 4.5625 31.1875 2.5625 33.1875 C-0.0625 33.3125 -0.0625 33.3125 -2.4375 33.1875 C-4.26819903 30.05820822 -4.67681181 27.81106854 -4.6328125 24.203125 C-4.62636719 23.26855469 -4.61992187 22.33398438 -4.61328125 21.37109375 C-4.59652344 20.40300781 -4.57976562 19.43492187 -4.5625 18.4375 C-4.55347656 17.45394531 -4.54445312 16.47039062 -4.53515625 15.45703125 C-4.51162785 13.03360593 -4.47875368 10.61067778 -4.4375 8.1875 C-5.22125 8.22875 -6.005 8.27 -6.8125 8.3125 C-9.4375 8.1875 -9.4375 8.1875 -11.4375 6.1875 C-11.625 3.625 -11.625 3.625 -11.4375 1.1875 C-9.07794489 -1.17205511 -3.16997174 0.00207595 0 0 Z " fill="#2F6198" transform="translate(141.4375,153.8125)"/>
<path d="M0 0 C2.51666056 2.12948202 3.71851452 3.6855159 4.4140625 6.93359375 C4.68833701 10.75178367 4.19686896 12.67414793 2.1875 16 C-1.85373205 18.53567501 -4.2965172 18.15821722 -8.9453125 17.90625 C-13.44909784 18.04447359 -17.21402926 19.57865072 -21.37109375 21.22265625 C-24.12232168 22.03616941 -25.35606554 21.99381934 -28 21 C-27.34 20.67 -26.68 20.34 -26 20 C-26 18.02 -26 16.04 -26 14 C-25.34 14 -24.68 14 -24 14 C-24 13.34 -24 12.68 -24 12 C-23.38511719 11.79246094 -22.77023438 11.58492187 -22.13671875 11.37109375 C-17.34671485 9.71580121 -17.34671485 9.71580121 -13.91015625 6.24609375 C-13.58337891 5.31990234 -13.58337891 5.31990234 -13.25 4.375 C-12 1 -12 1 -9.75 -0.5 C-6.11769092 -1.16041983 -3.56921993 -0.97342362 0 0 Z M-6 6 C-6.33 7.32 -6.66 8.64 -7 10 C-6.01 10.495 -6.01 10.495 -5 11 C-4.34 10.67 -3.68 10.34 -3 10 C-3 9.01 -3 8.02 -3 7 C-3.99 6.67 -4.98 6.34 -6 6 Z " fill="#557CAA" transform="translate(148,110)"/>
<path d="M0 0 C2.475 0.99 2.475 0.99 5 2 C5 9.92 5 17.84 5 26 C8.3 26 11.6 26 15 26 C16 27 16 27 16.1875 29.4375 C16 32 16 32 14 34 C10.84765625 34.265625 10.84765625 34.265625 7.0625 34.25 C5.81597656 34.25515625 4.56945312 34.2603125 3.28515625 34.265625 C0 34 0 34 -3 32 C-4.24229801 27.25213691 -4.1508648 22.43801422 -4.125 17.5625 C-4.12886719 16.83740234 -4.13273437 16.11230469 -4.13671875 15.36523438 C-4.12858216 10.83722443 -3.97685952 6.44078092 -3 2 C-2.01 1.34 -1.02 0.68 0 0 Z " fill="#3BC0E5" transform="translate(52,153)"/>
<path d="M0 0 C3.7026018 1.67498653 4.31409326 4.02560551 5.828125 7.66796875 C8.98245135 17.64120647 8.95613668 30.2352151 5.625 40.1875 C3.625 42.1875 3.625 42.1875 1.125 42.4375 C-1.375 42.1875 -1.375 42.1875 -3.375 40.1875 C-3.17987087 38.27607376 -2.97134401 36.3646515 -2.68115234 34.46533203 C-2.17376404 30.69026593 -2.19072615 26.92863645 -2.1875 23.125 C-2.17525391 22.36123047 -2.16300781 21.59746094 -2.15039062 20.81054688 C-2.13770209 15.86624661 -2.86070671 11.88946904 -4.375 7.1875 C-4.625 4.375 -4.625 4.375 -4.375 2.1875 C-2.375 0.1875 -2.375 0.1875 0 0 Z " fill="#326299" transform="translate(157.375,56.8125)"/>
<path d="M0 0 C9.49176312 0.2585897 17.21348671 5.01696311 24 11.375 C26.44656014 14.09193471 27.85204374 16.44498919 28.4375 20.125 C28.293125 20.8675 28.14875 21.61 28 22.375 C25 24.375 25 24.375 23.04296875 24.26953125 C20.30403587 23.07026618 19.14570341 21.41069137 17.3125 19.0625 C11.58801231 12.38393103 5.21500099 10.34202275 -3.25 8.76953125 C-5 8.375 -5 8.375 -6 7.375 C-6.1875 4.9375 -6.1875 4.9375 -6 2.375 C-3.67135666 0.04635666 -3.16677929 0.05654963 0 0 Z " fill="#537CA9" transform="translate(114,45.625)"/>
<path d="M0 0 C2.6875 0.875 2.6875 0.875 5 2 C5.02465504 6.39656173 5.04283842 10.7930872 5.05493164 15.18969727 C5.05997121 16.68644918 5.06680287 18.18319616 5.07543945 19.67993164 C5.08752159 21.82699807 5.09323191 23.97399962 5.09765625 26.12109375 C5.10289307 27.4145874 5.10812988 28.70808105 5.11352539 30.04077148 C5 33 5 33 4 34 C1.5625 34.1875 1.5625 34.1875 -1 34 C-4.3941056 30.6058944 -3.30335836 25.84009201 -3.32226562 21.2578125 C-3.31900269 20.21028809 -3.31900269 20.21028809 -3.31567383 19.14160156 C-3.31251177 17.00794515 -3.33597638 14.87567256 -3.36132812 12.7421875 C-3.36360088 11.39062675 -3.36430472 10.03906227 -3.36328125 8.6875 C-3.36626221 7.45386719 -3.36924316 6.22023437 -3.37231445 4.94921875 C-3.1880188 3.48935547 -3.1880188 3.48935547 -3 2 C-2.01 1.34 -1.02 0.68 0 0 Z " fill="#35BEE5" transform="translate(121,153)"/>
<path d="M0 0 C1.875 0.6875 1.875 0.6875 2.875 1.6875 C2.9751491 3.88227691 3.00581219 6.080284 3.0078125 8.27734375 C3.00876923 8.9370668 3.00972595 9.59678986 3.01071167 10.27650452 C3.01139336 11.67449031 3.00953986 13.07247924 3.00537109 14.47045898 C3.00003106 16.61253982 3.00531199 18.75441017 3.01171875 20.89648438 C3.0110578 22.25260463 3.00977629 23.60872476 3.0078125 24.96484375 C3.00668457 26.20484131 3.00555664 27.44483887 3.00439453 28.72241211 C2.875 31.6875 2.875 31.6875 1.875 33.6875 C-0.5 33.8125 -0.5 33.8125 -3.125 33.6875 C-6.5191056 30.2933944 -5.42835836 25.52759201 -5.44726562 20.9453125 C-5.44400269 19.89778809 -5.44400269 19.89778809 -5.44067383 18.82910156 C-5.43751177 16.69544515 -5.46097638 14.56317256 -5.48632812 12.4296875 C-5.48860088 11.07812675 -5.48930472 9.72656227 -5.48828125 8.375 C-5.49126221 7.14136719 -5.49424316 5.90773437 -5.49731445 4.63671875 C-5.3130188 3.17685547 -5.3130188 3.17685547 -5.125 1.6875 C-2.125 -0.3125 -2.125 -0.3125 0 0 Z " fill="#2EBCE4" transform="translate(75.125,153.3125)"/>
<path d="M0 0 C7.45705842 0.3389572 15.69729262 3.69729262 21 9 C21.825 9.309375 22.65 9.61875 23.5 9.9375 C26 11 26 11 28 14 C27.625 16.6875 27.625 16.6875 27 19 C24.828125 19.73046875 24.828125 19.73046875 22 20 C19.421875 18.48828125 19.421875 18.48828125 16.75 16.3125 C8.51117074 10.00120433 1.24269129 7.45503652 -9 6 C-9 5.67 -9 5.34 -9 5 C-6.36 5 -3.72 5 -1 5 C-0.67 3.35 -0.34 1.7 0 0 Z " fill="#4A74A4" transform="translate(123,30)"/>
<path d="M0 0 C3 1 3 1 5.25 3.8125 C11.60337403 11.58187528 19.48227631 11.9967448 29 13 C28.34 13.66 27.68 14.32 27 15 C26.83312552 17.58354218 26.83312552 17.58354218 27 20 C17.00701106 21.55559219 11.19602311 20.60540379 2.9375 14.875 C0.43013875 11.15439944 0.63275982 8.58975461 0.921875 4.20703125 C1.17778931 1.95676613 1.17778931 1.95676613 0 0 Z " fill="#5FA7CD" transform="translate(88,92)"/>
<path d="M0 0 C0.94101563 0.00322266 1.88203125 0.00644531 2.8515625 0.00976562 C3.83640625 0.01814453 4.82125 0.02652344 5.8359375 0.03515625 C6.82851562 0.03966797 7.82109375 0.04417969 8.84375 0.04882812 C11.2995391 0.0606348 13.75520854 0.07710225 16.2109375 0.09765625 C15.2209375 0.59265625 15.2209375 0.59265625 14.2109375 1.09765625 C14.2315625 2.04640625 14.2521875 2.99515625 14.2734375 3.97265625 C14.2109375 7.09765625 14.2109375 7.09765625 13.2109375 9.09765625 C6.753381 11.25017508 -1.2048691 10.56081034 -7.7890625 9.09765625 C-7.203125 2.9453125 -7.203125 2.9453125 -6.7890625 1.09765625 C-4.33631109 -0.12871945 -2.7384844 -0.01649689 0 0 Z " fill="#649CC2" transform="translate(107.7890625,122.90234375)"/>
<path d="M0 0 C0.3125 2.6875 0.3125 2.6875 0 6 C-4.95475696 11.89214341 -9.65215478 13.8003518 -17 15 C-20.5625 15.125 -20.5625 15.125 -23 15 C-23 14.34 -23 13.68 -23 13 C-21.02 13 -19.04 13 -17 13 C-17 11.35 -17 9.7 -17 8 C-18.65 8 -20.3 8 -22 8 C-22 7.67 -22 7.34 -22 7 C-19.69 7 -17.38 7 -15 7 C-15 6.34 -15 5.68 -15 5 C-13.58521865 4.35004703 -12.16808513 3.70521278 -10.75 3.0625 C-9.96109375 2.70285156 -9.1721875 2.34320313 -8.359375 1.97265625 C-5.54282939 0.81153066 -3.05480984 0 0 0 Z " fill="#5B87B2" transform="translate(132,99)"/>
<path d="M0 0 C-0.33 1.98 -0.66 3.96 -1 6 C-12.385 6.99 -12.385 6.99 -24 8 C-23.34 5.36 -22.68 2.72 -22 0 C-14.78621941 -1.64364621 -7.23192788 -1.56366008 0 0 Z " fill="#629BC2" transform="translate(123,29)"/>
<path d="M0 0 C3.76562908 0.52300404 6.45253236 1.07512974 9 4 C9.7117756 8.903343 9.75835173 10.86247241 7 15 C2.97020535 17.68652977 0.76065969 17.40344574 -4 17 C-4 16.01 -4 15.02 -4 14 C-2.02 14.495 -2.02 14.495 0 15 C0 14.01 0 13.02 0 12 C-0.66 11.67 -1.32 11.34 -2 11 C-0.68 10.34 0.64 9.68 2 9 C2 8.01 2 7.02 2 6 C0.68 5.34 -0.64 4.68 -2 4 C-1.34 4 -0.68 4 0 4 C0 2.68 0 1.36 0 0 Z " fill="#456FA2" transform="translate(143,111)"/>
<path d="M0 0 C0.33 0.66 0.66 1.32 1 2 C1.99 2.33 2.98 2.66 4 3 C5.71875 4.9609375 5.71875 4.9609375 7.5 7.375 C9.53246736 10.11169948 11.51998171 12.65608028 14 15 C13.67 15.66 13.34 16.32 13 17 C12.01 16.01 11.02 15.02 10 14 C9.67 16.31 9.34 18.62 9 21 C5.78956118 19.61811547 3.95063635 18.07578097 1.75 15.375 C1.22921875 14.74335937 0.7084375 14.11171875 0.171875 13.4609375 C-0.21484375 12.97882813 -0.6015625 12.49671875 -1 12 C-0.67 11.67 -0.34 11.34 0 11 C0.07226502 9.14712498 0.0838122 7.29166122 0.0625 5.4375 C0.05347656 4.42558594 0.04445313 3.41367188 0.03515625 2.37109375 C0.02355469 1.58863281 0.01195313 0.80617188 0 0 Z " fill="#44B4DB" transform="translate(70,99)"/>
<path d="M0 0 C6.59774218 0.14922196 12.61357511 2.32949295 17.625 6.625 C18.07875 7.2025 18.5325 7.78 19 8.375 C18.29875 8.08625 17.5975 7.7975 16.875 7.5 C13.94547497 6.35366412 10.99078347 5.34874346 8 4.375 C8 6.025 8 7.675 8 9.375 C5.8537974 9.23470581 3.70803782 9.08761836 1.5625 8.9375 C0.36753906 8.85628906 -0.82742187 8.77507813 -2.05859375 8.69140625 C-5 8.375 -5 8.375 -6 7.375 C-6.1875 4.9375 -6.1875 4.9375 -6 2.375 C-3.67135666 0.04635666 -3.16677929 0.05654963 0 0 Z " fill="#6C97BD" transform="translate(114,45.625)"/>
<path d="M0 0 C7.3452188 0.83468395 7.3452188 0.83468395 10 4 C10.72394376 8.98716815 10.84391377 10.86674436 7.8125 14.9375 C5 17 5 17 0 18 C0.99 14.04 1.98 10.08 3 6 C1.35 6.66 -0.3 7.32 -2 8 C-1.67 7.01 -1.34 6.02 -1 5 C-0.34 5 0.32 5 1 5 C0.67 3.35 0.34 1.7 0 0 Z " fill="#5CA6CC" transform="translate(88,53)"/>
<path d="M0 0 C5.94 0.66 11.88 1.32 18 2 C17.34 2.66 16.68 3.32 16 4 C15.83312552 6.58354218 15.83312552 6.58354218 16 9 C3.33029613 10.51708428 3.33029613 10.51708428 -2 8 C-0.68 7.67 0.64 7.34 2 7 C1.34 4.69 0.68 2.38 0 0 Z " fill="#669DC3" transform="translate(99,103)"/>
<path d="M0 0 C0.721875 0.45375 1.44375 0.9075 2.1875 1.375 C4.74894081 2.85494358 7.23277989 3.97217539 10 5 C10 8.3 10 11.6 10 15 C5.21681908 13.80420477 2.9104897 11.93286728 -1 9 C-0.67 6.03 -0.34 3.06 0 0 Z " fill="#59B0D5" transform="translate(79,112)"/>
<path d="M0 0 C1.32 0 2.64 0 4 0 C4.32545548 4.71910453 4.39149665 7.18800694 2.3125 11.5 C0 14 0 14 -2.75 14.375 C-3.4925 14.25125 -4.235 14.1275 -5 14 C-6.1875 12.3125 -6.1875 12.3125 -7 10 C-5.875 7.5625 -5.875 7.5625 -4 5 C-3.360625 4.071875 -2.72125 3.14375 -2.0625 2.1875 C-1.381875 1.465625 -0.70125 0.74375 0 0 Z " fill="#4AB8DE" transform="translate(75,41)"/>
<path d="M0 0 C3.95371299 0.56481614 6.71675094 1.71996593 10 4 C11.35439668 6.70879335 11.06501451 9.00933268 11 12 C2.57798165 9.24770642 2.57798165 9.24770642 -0.625 7.875 C-3.70629518 6.73978599 -6.74884735 6.38248855 -10 6 C-10 5.67 -10 5.34 -10 5 C-8.741875 4.979375 -7.48375 4.95875 -6.1875 4.9375 C-5.47980469 4.92589844 -4.77210937 4.91429687 -4.04296875 4.90234375 C-2 5 -2 5 1 6 C0.67 4.02 0.34 2.04 0 0 Z " fill="#5684B1" transform="translate(121,49)"/>
<path d="M0 0 C-2.5224547 7.73552775 -2.5224547 7.73552775 -4.99609375 9.10546875 C-5.80175781 9.46253906 -6.60742188 9.81960937 -7.4375 10.1875 C-8.64212891 10.73470703 -8.64212891 10.73470703 -9.87109375 11.29296875 C-12 12 -12 12 -14 11 C-13.67 8.36 -13.34 5.72 -13 3 C-4.57142857 -0.42857143 -4.57142857 -0.42857143 0 0 Z " fill="#5DA5CB" transform="translate(102,30)"/>
<path d="M0 0 C-0.020625 0.78375 -0.04125 1.5675 -0.0625 2.375 C-0.18684063 4.98114961 -0.18684063 4.98114961 1 7 C-0.4117783 7.53394179 -1.82970244 8.05165104 -3.25 8.5625 C-4.03890625 8.85253906 -4.8278125 9.14257812 -5.640625 9.44140625 C-8.19103452 10.04522837 -9.55322229 9.8473932 -12 9 C-11.34 8.67 -10.68 8.34 -10 8 C-10 6.02 -10 4.04 -10 2 C-9.34 2 -8.68 2 -8 2 C-8 1.34 -8 0.68 -8 0 C-4.71023192 -1.09658936 -3.28696233 -0.79953138 0 0 Z " fill="#5B87B2" transform="translate(132,122)"/>
<path d="M0 0 C-0.99 0.495 -0.99 0.495 -2 1 C-1.979375 1.94875 -1.95875 2.8975 -1.9375 3.875 C-2 7 -2 7 -3 9 C-6.47325181 10.1577506 -9.36067448 10.06866652 -13 10 C-13 9.34 -13 8.68 -13 8 C-11.68 8 -10.36 8 -9 8 C-9 6.35 -9 4.7 -9 3 C-10.65 3 -12.3 3 -14 3 C-14 2.34 -14 1.68 -14 1 C-4.58997722 -0.14806378 -4.58997722 -0.14806378 0 0 Z " fill="#6291B9" transform="translate(124,123)"/>
<path d="M0 0 C6.75 0.75 6.75 0.75 9 3 C9.125 5.625 9.125 5.625 9 8 C2.79895188 8.27560214 -2.93184478 7.22899346 -9 6 C-9 5.67 -9 5.34 -9 5 C-6.36 5 -3.72 5 -1 5 C-0.67 3.35 -0.34 1.7 0 0 Z " fill="#5684B0" transform="translate(123,30)"/>
<path d="M0 0 C-0.33 0.33 -0.66 0.66 -1 1 C-1.04080783 2.99958364 -1.04254356 5.00045254 -1 7 C-1.99 7 -2.98 7 -4 7 C-4 7.66 -4 8.32 -4 9 C-7.3 9.33 -10.6 9.66 -14 10 C-14 9.34 -14 8.68 -14 8 C-12.02 8 -10.04 8 -8 8 C-8 6.35 -8 4.7 -8 3 C-9.65 3 -11.3 3 -13 3 C-13 2.67 -13 2.34 -13 2 C-10.69 2 -8.38 2 -6 2 C-6 1.34 -6 0.68 -6 0 C-3 -1 -3 -1 0 0 Z " fill="#6290B9" transform="translate(123,104)"/>
<path d="M0 0 C3.3 0.33 6.6 0.66 10 1 C9.67 2.98 9.34 4.96 9 7 C2.95170514 7.89604368 -2.8894576 8.11269443 -9 8 C-9 7.67 -9 7.34 -9 7 C-3.555 6.505 -3.555 6.505 2 6 C2 4.35 2 2.7 2 1 C1.34 0.67 0.68 0.34 0 0 Z " fill="#5E8FB9" transform="translate(113,28)"/>
<path d="M0 0 C2.5 1.5 2.5 1.5 4 3 C3.67 3.66 3.34 4.32 3 5 C2.1646875 4.2575 2.1646875 4.2575 1.3125 3.5 C-1.4730572 1.69315209 -2.74084723 1.42964827 -6 2 C-8.18777466 3.9375006 -8.18777466 3.9375006 -10 6 C-10.66 6 -11.32 6 -12 6 C-12 7.65 -12 9.3 -12 11 C-12.33 11 -12.66 11 -13 11 C-13.45761159 7.0645403 -13.29742742 5.42755191 -11 2.125 C-6.87076758 -0.79987296 -4.98906907 -0.63353258 0 0 Z " fill="#77B8D9" transform="translate(93,52)"/>
<path d="M0 0 C2.31 0 4.62 0 7 0 C7 1.65 7 3.3 7 5 C4.69 4.67 2.38 4.34 0 4 C0 2.68 0 1.36 0 0 Z " fill="#6499C0" transform="translate(108,48)"/>
<path d="M0 0 C2.05078125 0.03255208 4.1015625 0.06510417 6.15234375 0.09765625 C6.15234375 0.75765625 6.15234375 1.41765625 6.15234375 2.09765625 C3.84234375 2.09765625 1.53234375 2.09765625 -0.84765625 2.09765625 C-0.84765625 3.74765625 -0.84765625 5.39765625 -0.84765625 7.09765625 C-1.50765625 7.09765625 -2.16765625 7.09765625 -2.84765625 7.09765625 C-2.89019981 5.09810879 -2.88846408 3.09723989 -2.84765625 1.09765625 C-1.84765625 0.09765625 -1.84765625 0.09765625 0 0 Z " fill="#1E5893" transform="translate(165.84765625,171.90234375)"/>
<path d="M0 0 C-1.49836105 3.11198065 -3.19933758 6.0534615 -5 9 C-5.66 8.67 -6.32 8.34 -7 8 C-3.8 0 -3.8 0 0 0 Z " fill="#4972A5" transform="translate(140,110)"/>
</svg>
